HIERARCHY
ROOT Hips
{
	OFFSET -0.001795 -0.223333 0.028219
	CHANNELS 6 Xposition Yposition Zposition Zrotation Yrotation Xrotation 
	JOINT LeftUpLeg
	{
		OFFSET 0.069520 -0.091406 -0.006815
		CHANNELS 3 Zrotation Yrotation Xrotation
		JOINT LeftLeg
		{
			OFFSET 0.034277 -0.375199 -0.004496
			CHANNELS 3 Zrotation Yrotation Xrotation
			JOINT LeftFoot
			{
				OFFSET -0.013596 -0.397961 -0.043693
				CHANNELS 3 Zrotation Yrotation Xrotation
				JOINT LeftToe
				{
					OFFSET 0.026358 -0.055791 0.119288
					CHANNELS 3 Zrotation Yrotation Xrotation
					End Site
					{
						OFFSET 0.000000 0.000000 0.000000
					}
				}
			}
		}
	}
	JOINT RightUpLeg
	{
		OFFSET -0.067670 -0.090522 -0.004320
		CHANNELS 3 Zrotation Yrotation Xrotation
		JOINT RightLeg
		{
			OFFSET -0.038290 -0.382569 -0.008850
			CHANNELS 3 Zrotation Yrotation Xrotation
			JOINT RightFoot
			{
				OFFSET 0.015774 -0.398415 -0.042312
				CHANNELS 3 Zrotation Yrotation Xrotation
				JOINT RightToe
				{
					OFFSET -0.025372 -0.048144 0.123348
					CHANNELS 3 Zrotation Yrotation Xrotation
					End Site
					{
						OFFSET 0.000000 0.000000 0.000000
					}
				}
			}
		}
	}
	JOINT Spine
	{
		OFFSET -0.002533 0.108963 -0.026696
		CHANNELS 3 Zrotation Yrotation Xrotation
		JOINT Spine1
		{
			OFFSET 0.005487 0.135180 0.001092
			CHANNELS 3 Zrotation Yrotation Xrotation
			JOINT Spine2
			{
				OFFSET 0.001457 0.052922 0.025425
				CHANNELS 3 Zrotation Yrotation Xrotation
				JOINT Neck
				{
					OFFSET -0.002778 0.213870 -0.042857
					CHANNELS 3 Zrotation Yrotation Xrotation
					JOINT Head
					{
						OFFSET 0.005152 0.064970 0.051349
						CHANNELS 3 Zrotation Yrotation Xrotation
						End Site
						{
							OFFSET 0.000000 0.000000 0.000000
						}
					}
				}
				JOINT LeftShoulder
				{
					OFFSET 0.078845 0.121749 -0.034090
					CHANNELS 3 Zrotation Yrotation Xrotation
					JOINT LeftArm
					{
						OFFSET 0.090977 0.030469 -0.008868
						CHANNELS 3 Zrotation Yrotation Xrotation
						JOINT LeftForeArm
						{
							OFFSET 0.259612 -0.012772 -0.027456
							CHANNELS 3 Zrotation Yrotation Xrotation
							JOINT LeftHand
							{
								OFFSET 0.249234 0.008986 -0.001171
								CHANNELS 3 Zrotation Yrotation Xrotation
								End Site
								{
									OFFSET 0.000000 0.000000 0.000000
								}
							}
						}
					}
				}
				JOINT RightShoulder
				{
					OFFSET -0.081759 0.118833 -0.038615
					CHANNELS 3 Zrotation Yrotation Xrotation
					JOINT RightArm
					{
						OFFSET -0.096012 0.032551 -0.009143
						CHANNELS 3 Zrotation Yrotation Xrotation
						JOINT RightForeArm
						{
							OFFSET -0.253742 -0.013329 -0.021401
							CHANNELS 3 Zrotation Yrotation Xrotation
							JOINT RightHand
							{
								OFFSET -0.255298 0.007772 -0.005559
								CHANNELS 3 Zrotation Yrotation Xrotation
								End Site
								{
									OFFSET 0.000000 0.000000 0.000000
								}
							}
						}
					}
				}
			}
		}
	}
}
MOTION
Frames: 16
Frame Time: 0.050000
0.000000 0.944489 0.000000 -2.818940 -16.045511 9.424240 4.717286 -0.382499 -8.589985 0.935590 0.122421 -5.691687 -3.873283 -5.129577 8.381648 0.000000 0.000000 0.000000 -2.371682 0.975388 -9.851578 2.862911 -0.187673 -0.678266 -6.428061 -17.704219 9.405805 0.000000 0.000000 0.000000 -4.686671 0.468727 12.305826 -8.018770 4.394877 4.531742 -6.179347 -3.258932 2.810453 -5.069032 3.354860 -12.673951 0.000000 0.000000 0.000000 -30.038130 -27.700633 20.166825 -28.548709 -31.192820 2.429782 -8.100784 -42.277337 5.198694 0.000000 0.000000 0.000000 -3.343984 26.107007 8.517969 15.614740 3.120229 -0.845816 0.990731 50.514864 0.566071 0.000000 0.000000 0.000000 
0.000067 0.943162 -0.000242 -2.146636 -16.208103 9.373440 5.332727 -0.320076 -8.157600 -0.643210 0.295082 -6.638066 -5.403285 -7.270836 9.881459 0.000000 0.000000 0.000000 -2.084409 0.969221 -9.782729 0.971725 -0.073367 -0.444608 -5.929947 -16.563954 8.274635 0.000000 0.000000 0.000000 -6.340262 0.789526 12.820342 -6.653558 3.455903 2.719324 -7.257812 -2.275689 4.283545 -6.224491 4.104120 -14.154336 0.000000 0.000000 0.000000 -30.115256 -26.139188 18.795529 -29.623897 -31.509047 2.602332 -11.867260 -48.834466 8.074178 0.000000 0.000000 0.000000 -3.775851 25.247312 8.260198 12.948434 3.811558 -0.744899 6.844002 49.787603 3.315450 0.000000 0.000000 0.000000 
-0.000035 0.943715 -0.000394 -2.775689 -14.425427 9.741343 5.873165 -0.333220 -9.170631 0.032949 0.135441 -4.171842 -6.328979 -9.734184 7.581970 0.000000 0.000000 0.000000 -1.433231 0.967219 -9.747863 2.130045 -0.153602 -0.530385 -7.121300 -18.610589 8.141679 0.000000 0.000000 0.000000 -5.035420 0.535837 13.112289 -6.253313 3.230857 2.812922 -8.279909 -2.793298 3.433369 -5.598168 3.902562 -10.324350 0.000000 0.000000 0.000000 -30.541049 -27.668731 19.820165 -28.354271 -29.256153 1.968596 -11.688524 -51.503746 8.445905 0.000000 0.000000 0.000000 -4.373287 26.204747 8.545716 14.589338 2.966638 -0.860839 10.586744 48.703360 4.968736 0.000000 0.000000 0.000000 
-0.000509 0.942384 -0.000635 -2.630625 -13.417508 9.541373 6.314308 -0.308221 -8.761294 -0.486614 0.204346 -4.717087 -8.481321 -13.626179 7.476152 0.000000 0.000000 0.000000 -2.043486 0.936240 -9.515239 3.137006 -0.224305 -0.701068 -8.552352 -21.028281 7.401220 0.000000 0.000000 0.000000 -5.016170 0.489186 12.488639 -5.982191 3.098706 3.029702 -9.248388 -2.761620 4.871979 -5.451528 3.832097 -11.202339 0.000000 0.000000 0.000000 -29.874066 -28.111059 19.669766 -29.768570 -30.467791 2.486891 -10.659152 -51.426552 7.915833 0.000000 0.000000 0.000000 -5.120096 25.658466 8.290583 14.350699 3.538358 -0.886086 13.209649 47.315804 5.985819 0.000000 0.000000 0.000000 
-0.001127 0.941924 -0.000825 -3.047895 -12.933669 9.507248 6.392108 -0.306729 -8.717744 -0.118342 0.157651 -4.361314 -8.121267 -13.721977 6.069547 0.000000 0.000000 0.000000 -1.746477 0.912102 -9.257603 3.471933 -0.250950 -0.996637 -8.308353 -20.625894 7.741050 0.000000 0.000000 0.000000 -4.603487 0.418071 12.840428 -6.607968 3.425600 3.160493 -8.436792 -3.059203 4.880015 -5.856754 4.080088 -11.320196 0.000000 0.000000 0.000000 -28.604060 -27.943797 19.227855 -31.107652 -30.215503 2.665743 -8.440658 -53.821170 7.303249 0.000000 0.000000 0.000000 -5.076916 25.337907 8.185419 15.770574 3.673984 -0.943911 14.385139 49.492313 6.745528 0.000000 0.000000 0.000000 
-0.002106 0.941799 -0.001044 -2.833078 -12.197854 9.665514 6.358750 -0.333282 -8.853669 -0.885338 0.226177 -4.308770 -8.111818 -13.665397 6.092624 0.000000 0.000000 0.000000 -2.568480 0.854866 -8.688045 5.067919 -0.346857 -1.507893 -8.744271 -21.365049 7.607753 0.000000 0.000000 0.000000 -4.992678 0.477837 12.879213 -6.355292 3.246485 2.800836 -7.986481 -2.516524 5.437862 -6.656861 4.644407 -11.850539 0.000000 0.000000 0.000000 -28.986048 -28.297616 19.300799 -30.282934 -29.617471 2.423464 -10.637345 -55.343044 8.637848 0.000000 0.000000 0.000000 -5.395757 26.374233 8.484605 16.629501 2.294951 -1.142702 17.853791 51.360083 8.765730 0.000000 0.000000 0.000000 
-0.003153 0.941527 -0.001357 -2.855851 -11.638934 9.520462 6.467669 -0.333907 -8.893603 -0.943681 0.227303 -4.190673 -7.883193 -13.046157 6.386890 0.000000 0.000000 0.000000 -2.219788 0.854162 -8.702352 4.438423 -0.320662 -1.575382 -8.626889 -21.174307 7.809346 0.000000 0.000000 0.000000 -5.192697 0.510724 13.227935 -6.492336 3.352442 3.312429 -7.868687 -2.583506 5.049704 -6.980243 4.862112 -11.997835 0.000000 0.000000 0.000000 -28.445347 -28.067130 18.847983 -30.496626 -28.583626 2.264221 -15.079325 -56.544834 11.299779 0.000000 0.000000 0.000000 -5.672002 26.447345 8.483016 17.778653 2.936611 -1.160186 19.573129 50.952598 9.537389 0.000000 0.000000 0.000000 
-0.004132 0.941689 -0.001831 -3.031108 -11.109075 9.554621 6.423647 -0.354110 -9.219150 -1.096388 0.232630 -3.907245 -7.737001 -12.740153 6.398990 0.000000 0.000000 0.000000 -1.868902 0.856040 -8.719717 4.473531 -0.328272 -1.727239 -8.902029 -21.674617 7.930573 0.000000 0.000000 0.000000 -5.113179 0.509074 13.927944 -6.552504 3.355191 3.116732 -7.476460 -2.253857 5.263925 -7.881395 5.478872 -12.175152 0.000000 0.000000 0.000000 -28.672795 -28.145209 18.777763 -29.638948 -28.033360 2.034889 -19.896944 -57.424525 14.175232 0.000000 0.000000 0.000000 -6.136768 26.658079 8.499625 18.624229 3.048461 -1.227894 21.099412 51.295194 10.411926 0.000000 0.000000 0.000000 
-0.005095 0.941588 -0.002301 -3.070151 -10.786122 9.563614 6.529894 -0.355591 -9.407038 -0.959098 0.220113 -3.938826 -7.684487 -12.382366 6.833827 0.000000 0.000000 0.000000 -1.697657 0.857659 -8.733083 4.488848 -0.332912 -1.805746 -8.775898 -21.449297 7.927902 0.000000 0.000000 0.000000 -5.249211 0.538820 14.289705 -6.743688 3.484897 3.558763 -7.330165 -2.189327 4.881307 -7.970459 5.531391 -12.449020 0.000000 0.000000 0.000000 -28.500411 -28.225104 18.658643 -28.684341 -27.725567 1.882689 -23.440633 -57.685346 16.242846 0.000000 0.000000 0.000000 -6.376547 26.656475 8.479189 19.768560 3.444261 -1.257413 21.303656 51.615286 10.644199 0.000000 0.000000 0.000000 
-0.006049 0.941922 -0.002746 -3.092042 -10.365820 9.144711 6.665003 -0.346670 -9.452962 -1.132956 0.223056 -3.465501 -7.348947 -11.899659 6.520965 0.000000 0.000000 0.000000 -1.558050 0.809790 -8.247548 4.613676 -0.345694 -1.763652 -8.878517 -21.597469 7.749091 0.000000 0.000000 0.000000 -5.572705 0.609640 15.108877 -6.776937 3.486384 3.451351 -7.126323 -1.856357 5.113875 -7.670521 5.376337 -12.600270 0.000000 0.000000 0.000000 -28.110506 -28.041379 18.190315 -27.970688 -27.638828 1.801482 -26.879837 -57.691798 18.187361 0.000000 0.000000 0.000000 -6.029403 26.835896 8.568677 20.930764 3.274082 -1.371530 22.415473 51.652625 11.289653 0.000000 0.000000 0.000000 
-0.006954 0.941758 -0.003052 -2.997598 -9.556718 8.900911 6.589099 -0.366918 -9.518169 -1.125736 0.221577 -3.485215 -7.575415 -12.007669 6.999590 0.000000 0.000000 0.000000 -1.656909 0.759425 -7.734077 4.546935 -0.351744 -2.064639 -8.751500 -21.341296 7.669389 0.000000 0.000000 0.000000 -5.682782 0.610429 15.259298 -6.796212 3.502740 3.698405 -7.064557 -1.514335 5.046744 -7.561880 5.377933 -12.274324 0.000000 0.000000 0.000000 -27.952579 -28.282557 17.994876 -26.956155 -27.151062 1.633749 -29.842852 -57.853958 19.893638 0.000000 0.000000 0.000000 -5.162208 27.199635 8.801587 21.987700 2.521442 -1.552839 24.623689 52.256188 12.690802 0.000000 0.000000 0.000000 
-0.007730 0.941648 -0.003178 -2.921136 -8.951228 8.955552 6.285328 -0.409677 -9.833328 -0.861856 0.192365 -3.365007 -7.456208 -11.801306 6.913041 0.000000 0.000000 0.000000 -1.650044 0.760694 -7.751402 4.332895 -0.346392 -2.058834 -8.831968 -21.465477 7.337595 0.000000 0.000000 0.000000 -5.653080 0.593074 15.351482 -6.943288 3.565358 3.688832 -6.779217 -1.318182 5.419385 -7.094129 5.109903 -12.359906 0.000000 0.000000 0.000000 -27.723650 -28.598037 18.001180 -25.738095 -27.159101 1.488169 -32.499665 -58.403077 21.661531 0.000000 0.000000 0.000000 -5.013159 27.116958 8.801222 23.793496 1.593462 -1.842370 27.211622 53.750892 14.510261 0.000000 0.000000 0.000000 
-0.008324 0.941416 -0.003151 -2.824169 -8.229566 8.759621 5.999881 -0.441582 -9.824949 -0.605556 0.170296 -3.448115 -7.514124 -11.645232 7.297812 0.000000 0.000000 0.000000 -1.742022 0.728354 -7.416863 4.158547 -0.344543 -2.369618 -8.890556 -21.568132 7.495401 0.000000 0.000000 0.000000 -5.796792 0.605917 15.633639 -6.789809 3.475984 3.718722 -6.690634 -1.013047 5.611069 -6.831468 4.980373 -12.770788 0.000000 0.000000 0.000000 -27.568406 -28.868313 17.891896 -24.600320 -27.019650 1.354619 -35.756370 -58.905708 23.797163 0.000000 0.000000 0.000000 -4.237923 26.781894 8.817482 25.157031 0.402781 -2.163264 31.417213 55.000641 17.282235 0.000000 0.000000 0.000000 
-0.008698 0.941125 -0.003048 -2.896502 -7.937875 8.648415 5.797579 -0.461381 -9.883624 -0.320727 0.143227 -3.420012 -7.246939 -11.035425 7.462104 0.000000 0.000000 0.000000 -1.630060 0.728885 -7.427640 3.926487 -0.333303 -2.157238 -8.598811 -21.021641 7.377830 0.000000 0.000000 0.000000 -5.608856 0.558988 15.619419 -6.868794 3.514702 3.760110 -6.376164 -0.927885 5.847983 -6.612735 4.860302 -12.685042 0.000000 0.000000 0.000000 -27.825970 -28.865044 17.916154 -23.614924 -26.783914 1.177075 -38.764526 -59.048485 25.703952 0.000000 0.000000 0.000000 -3.720289 26.125899 8.673207 26.381293 -0.227572 -2.398041 34.899094 56.047794 19.621396 0.000000 0.000000 0.000000 
-0.008856 0.941030 -0.003072 -2.845880 -7.732930 8.772625 5.480767 -0.496024 -10.053564 -0.083965 0.125316 -3.520853 -7.269181 -10.982882 7.607987 0.000000 0.000000 0.000000 -1.850328 0.725837 -7.394937 3.858187 -0.331727 -2.345084 -8.289761 -20.441901 7.330382 0.000000 0.000000 0.000000 -5.623696 0.559187 15.618579 -6.776246 3.447007 3.575725 -6.277773 -0.863472 6.041503 -6.814331 5.004777 -12.562795 0.000000 0.000000 0.000000 -27.650233 -28.950643 17.887343 -22.917667 -26.462345 1.037485 -42.009109 -59.945663 28.229504 0.000000 0.000000 0.000000 -3.148583 25.575526 8.580577 26.972133 -0.775408 -2.559979 39.494968 57.517496 22.926153 0.000000 0.000000 0.000000 
-0.008939 0.940743 -0.003566 -2.894101 -7.621928 9.007784 5.512360 -0.506918 -10.321422 0.175781 0.100305 -3.468520 -7.532862 -11.413123 7.703120 0.000000 0.000000 0.000000 -1.750459 0.748857 -7.637661 3.721092 -0.323460 -2.237702 -8.216054 -20.297460 7.150552 0.000000 0.000000 0.000000 -5.705537 0.575557 15.586272 -6.681492 3.399055 3.653914 -5.913793 -1.207024 6.149103 -6.375246 4.682622 -12.939662 0.000000 0.000000 0.000000 -27.668631 -28.851010 17.988811 -21.493686 -26.548611 0.837198 -45.035497 -60.489511 30.543697 0.000000 0.000000 0.000000 -3.149512 25.247493 8.459899 26.828826 -0.663211 -2.518860 41.045045 58.989945 24.463708 0.000000 0.000000 0.000000 
